# Blender v2.78 (sub 0) OBJ File: 'installation.blend'
# www.blender.org
v -0.000000 -4.000000 -0.200000
v -0.000000 -4.000000 0.000000
v 2.000000 -4.000000 -0.200000
v 2.000000 -4.000000 0.000000
v 0.000000 -2.000000 -0.200000
v 0.000000 -2.000000 0.000000
v 4.000000 -2.000000 -0.200000
v 4.000000 -2.000000 0.000000
v 2.000000 -2.000000 0.000000
v 2.000000 -2.000000 -0.200000
v 1.000000 -4.000000 0.000000
v 1.000000 -4.000000 -0.200000
v 1.000000 -2.000000 -0.200000
v 1.000000 -2.000000 0.000000
v 3.000000 -4.000000 -0.200000
v 3.000000 -4.000000 0.000000
v 3.000000 -2.000000 0.000000
v 3.000000 -2.000000 -0.200000
v 4.000000 -1.000000 -0.200000
v 4.000000 -1.000000 0.000000
v 2.000000 -1.000000 0.000000
v 2.000000 -1.000000 -0.200000
v 1.000000 -1.000000 0.000000
v 1.000000 -1.000000 -0.200000
v 3.000000 -1.000000 -0.200000
v 3.000000 -1.000000 0.000000
v -0.000000 -3.000000 -0.200000
v 2.000000 -3.000000 0.000000
v 2.000000 -3.000000 -0.200000
v -0.000000 -3.000000 0.000000
v 1.000000 -3.000000 -0.200000
v 1.000000 -3.000000 0.000000
v 3.173648 -3.984808 -0.200000
v 3.173648 -3.984808 0.000000
v 3.342020 -3.939693 -0.200000
v 3.342020 -3.939693 0.000000
v 3.000000 -3.000000 -0.200000
v 3.500000 -3.866026 -0.200000
v 3.500000 -3.866026 0.000000
v 3.642787 -3.766045 -0.200000
v 3.642787 -3.766045 0.000000
v 3.766044 -3.642788 -0.200000
v 3.766044 -3.642788 0.000000
v 3.866025 -3.500000 -0.200000
v 3.866025 -3.500000 0.000000
v 3.939692 -3.342021 -0.200000
v 3.939692 -3.342021 0.000000
v 3.984807 -3.173649 -0.200000
v 3.984807 -3.173649 0.000000
v 3.000000 -3.000000 0.000000
v 3.999999 -3.000001 -0.200000
v 3.999999 -3.000001 0.000000
v -4.000000 0.000001 -0.200000
v -4.000000 0.000001 0.000000
v -4.000000 -1.999999 -0.200000
v -4.000000 -1.999999 0.000000
v -2.000000 0.000000 -0.200000
v -2.000000 -4.000000 -0.200000
v -2.000000 -4.000000 0.000000
v -2.000000 -2.000000 0.000000
v -2.000000 -2.000000 -0.200000
v 0.000000 -1.000000 -0.200000
v -4.000000 -0.999999 0.000000
v 0.000000 -1.000000 0.000000
v -4.000000 -0.999999 -0.200000
v -2.000000 -1.000000 -0.200000
v -2.000000 -1.000000 0.000000
v -4.000000 -3.000000 -0.200000
v -4.000000 -3.000000 0.000000
v -2.000000 -3.000000 0.000000
v -2.000000 -3.000000 -0.200000
v -1.000000 -4.000000 -0.200000
v -1.000000 0.000000 -0.200000
v -1.000000 -4.000000 0.000000
v -1.000000 -2.000000 0.000000
v -1.000000 -2.000000 -0.200000
v -1.000000 -1.000000 0.000000
v -1.000000 -1.000000 -0.200000
v -1.000000 -3.000000 -0.200000
v -1.000000 -3.000000 0.000000
v -3.000000 0.000001 -0.200000
v -3.000000 -2.000000 0.000000
v -3.000000 -2.000000 -0.200000
v -3.000000 0.000001 0.000000
v -3.000000 -1.000000 -0.200000
v -3.000000 -1.000000 0.000000
v -3.984808 -3.173647 -0.200000
v -3.984808 -3.173647 0.000000
v -3.939693 -3.342020 -0.200000
v -3.939693 -3.342020 0.000000
v -3.000000 -3.000000 -0.200000
v -3.866026 -3.500000 -0.200000
v -3.866026 -3.500000 0.000000
v -3.766045 -3.642787 -0.200000
v -3.766045 -3.642787 0.000000
v -3.642788 -3.766044 -0.200000
v -3.642788 -3.766044 0.000000
v -3.500000 -3.866024 -0.200000
v -3.500000 -3.866024 0.000000
v -3.342021 -3.939692 -0.200000
v -3.342021 -3.939692 0.000000
v -3.173649 -3.984807 -0.200000
v -3.173649 -3.984807 0.000000
v -3.000000 -3.000000 0.000000
v -3.000001 -3.999999 -0.200000
v -3.000001 -3.999999 0.000000
v 0.000000 0.000000 -0.200000
v 0.000000 0.000000 0.000000
v -2.000000 0.000000 0.000000
v -1.999999 4.000000 -0.200000
v -1.999999 4.000000 0.000000
v -4.000000 2.000001 -0.200000
v -4.000000 2.000001 0.000000
v -1.999999 2.000000 0.000000
v -1.999999 2.000000 -0.200000
v -0.999999 4.000000 0.000000
v -1.000000 0.000000 0.000000
v -0.999999 4.000000 -0.200000
v -0.999999 2.000000 -0.200000
v -0.999999 2.000000 0.000000
v -3.000000 4.000001 -0.200000
v -3.000000 4.000001 0.000000
v -3.000000 2.000001 0.000000
v -3.000000 2.000001 -0.200000
v -4.000000 1.000001 -0.200000
v -4.000000 1.000001 0.000000
v -2.000000 1.000000 0.000000
v -2.000000 1.000000 -0.200000
v -1.000000 1.000000 0.000000
v -1.000000 1.000000 -0.200000
v -3.000000 1.000001 -0.200000
v -3.000000 1.000001 0.000000
v -1.999999 3.000000 0.000000
v -1.999999 3.000000 -0.200000
v 0.000001 3.000000 0.000000
v -0.999999 3.000000 -0.200000
v -0.999999 3.000000 0.000000
v -3.173647 3.984809 -0.200000
v -3.173647 3.984809 0.000000
v -3.342020 3.939693 -0.200000
v -3.342020 3.939693 0.000000
v -3.000000 3.000001 -0.200000
v -3.500000 3.866026 -0.200000
v -3.500000 3.866026 0.000000
v -3.642787 3.766046 -0.200000
v -3.642787 3.766046 0.000000
v -3.766044 3.642789 -0.200000
v -3.766044 3.642789 0.000000
v -3.866024 3.500001 -0.200000
v -3.866024 3.500001 0.000000
v -3.939692 3.342021 -0.200000
v -3.939692 3.342021 0.000000
v -3.984807 3.173649 -0.200000
v -3.984807 3.173649 0.000000
v -3.000000 3.000001 0.000000
v -3.999999 3.000001 -0.200000
v -3.999999 3.000001 0.000000
v 4.000000 -0.000001 -0.200000
v 4.000000 -0.000001 -0.000000
v 0.000001 4.000000 -0.200000
v 0.000001 4.000000 -0.000000
v 0.000001 2.000000 -0.200000
v 0.000001 2.000000 -0.000000
v 4.000001 1.999999 -0.200000
v 4.000001 1.999999 -0.000000
v 2.000000 -0.000001 -0.200000
v 2.000000 -0.000001 -0.000000
v 2.000001 4.000000 -0.200000
v 2.000001 4.000000 -0.000000
v 2.000000 1.999999 -0.000000
v 2.000000 1.999999 -0.200000
v 0.000000 1.000000 -0.200000
v 4.000000 0.999999 -0.000000
v 0.000000 1.000000 -0.000000
v 4.000000 0.999999 -0.200000
v 2.000000 0.999999 -0.200000
v 2.000000 0.999999 -0.000000
v 4.000001 2.999999 -0.200000
v 0.000001 3.000000 -0.200000
v 4.000001 2.999999 -0.000000
v 2.000001 3.000000 -0.000000
v 2.000001 3.000000 -0.200000
v 1.000000 -0.000000 -0.000000
v 1.000001 4.000000 -0.200000
v 1.000000 -0.000000 -0.200000
v 1.000001 4.000000 -0.000000
v 1.000000 2.000000 -0.000000
v 1.000000 2.000000 -0.200000
v 1.000000 1.000000 -0.000000
v 1.000000 1.000000 -0.200000
v 1.000001 3.000000 -0.200000
v 1.000001 3.000000 -0.000000
v 3.000000 -0.000001 -0.200000
v 3.000000 1.999999 -0.000000
v 3.000000 1.999999 -0.200000
v 3.000000 -0.000001 -0.000000
v 3.000000 0.999999 -0.200000
v 3.000000 0.999999 -0.000000
v 3.984809 3.173647 -0.200000
v 3.984809 3.173647 -0.000000
v 3.939694 3.342019 -0.200000
v 3.939694 3.342019 -0.000000
v 3.000001 3.000000 -0.200000
v 3.866027 3.499999 -0.200000
v 3.866027 3.499999 -0.000000
v 3.766046 3.642787 -0.200000
v 3.766046 3.642787 -0.000000
v 3.642789 3.766043 -0.200000
v 3.642789 3.766043 -0.000000
v 3.500001 3.866024 -0.200000
v 3.500001 3.866024 -0.000000
v 3.342021 3.939692 -0.200000
v 3.342021 3.939692 -0.000000
v 3.173650 3.984807 -0.200000
v 3.173650 3.984807 -0.000000
v 3.000001 3.000000 -0.000000
v 3.000002 3.999999 -0.200000
v 3.000002 3.999999 -0.000000
v 1.000000 -4.000000 0.000000
v -0.000000 -4.000000 0.000000
v 1.000000 -4.000000 -0.200000
v 2.000000 -4.000000 -0.200000
v 3.000000 -4.000000 0.000000
v 2.000000 -4.000000 0.000000
v 4.000000 -1.000000 0.000000
v 4.000000 -2.000000 0.000000
v -0.000000 -4.000000 -0.200000
v 3.000000 -4.000000 -0.200000
v 4.000000 -2.000000 -0.200000
v 4.000000 -1.000000 -0.200000
v 3.173648 -3.984808 -0.200000
v 3.173648 -3.984808 0.000000
v 3.342020 -3.939693 -0.200000
v 3.342020 -3.939693 0.000000
v 3.500000 -3.866026 0.000000
v 3.500000 -3.866026 -0.200000
v 3.642787 -3.766045 -0.200000
v 3.642787 -3.766045 0.000000
v 3.766044 -3.642788 -0.200000
v 3.766044 -3.642788 0.000000
v 3.866025 -3.500000 0.000000
v 3.866025 -3.500000 -0.200000
v 3.939692 -3.342021 -0.200000
v 3.939692 -3.342021 0.000000
v 3.984807 -3.173649 0.000000
v 3.984807 -3.173649 -0.200000
v 3.999999 -3.000001 0.000000
v 3.999999 -3.000001 -0.200000
v -4.000000 -0.999999 0.000000
v -4.000000 0.000001 0.000000
v -4.000000 -0.999999 -0.200000
v -4.000000 -1.999999 -0.200000
v -4.000000 -3.000000 0.000000
v -4.000000 -1.999999 0.000000
v -1.000000 -4.000000 0.000000
v -2.000000 -4.000000 0.000000
v -4.000000 0.000001 -0.200000
v -4.000000 -3.000000 -0.200000
v -2.000000 -4.000000 -0.200000
v -1.000000 -4.000000 -0.200000
v -3.984808 -3.173647 -0.200000
v -3.984808 -3.173647 0.000000
v -3.939693 -3.342020 -0.200000
v -3.939693 -3.342020 0.000000
v -3.866026 -3.500000 0.000000
v -3.866026 -3.500000 -0.200000
v -3.766045 -3.642787 -0.200000
v -3.766045 -3.642787 0.000000
v -3.642788 -3.766044 -0.200000
v -3.642788 -3.766044 0.000000
v -3.500000 -3.866024 0.000000
v -3.500000 -3.866024 -0.200000
v -3.342021 -3.939692 -0.200000
v -3.342021 -3.939692 0.000000
v -3.173649 -3.984807 0.000000
v -3.173649 -3.984807 -0.200000
v -3.000001 -3.999999 0.000000
v -3.000001 -3.999999 -0.200000
v -0.999999 4.000000 -0.200000
v -1.999999 4.000000 -0.200000
v -3.000000 4.000001 0.000000
v -1.999999 4.000000 0.000000
v -4.000000 1.000001 0.000000
v -4.000000 2.000001 0.000000
v -0.999999 4.000000 0.000000
v -3.000000 4.000001 -0.200000
v -4.000000 2.000001 -0.200000
v -4.000000 1.000001 -0.200000
v -3.173647 3.984809 -0.200000
v -3.173647 3.984809 0.000000
v -3.342020 3.939693 -0.200000
v -3.342020 3.939693 0.000000
v -3.500000 3.866026 0.000000
v -3.500000 3.866026 -0.200000
v -3.642787 3.766046 -0.200000
v -3.642787 3.766046 0.000000
v -3.766044 3.642789 -0.200000
v -3.766044 3.642789 0.000000
v -3.866024 3.500001 0.000000
v -3.866024 3.500001 -0.200000
v -3.939692 3.342021 -0.200000
v -3.939692 3.342021 0.000000
v -3.984807 3.173649 0.000000
v -3.984807 3.173649 -0.200000
v -3.999999 3.000001 0.000000
v -3.999999 3.000001 -0.200000
v 1.000001 4.000000 -0.200000
v 0.000001 4.000000 -0.200000
v 4.000000 0.999999 -0.000000
v 4.000000 -0.000001 -0.000000
v 4.000000 0.999999 -0.200000
v 4.000001 1.999999 -0.200000
v 4.000001 2.999999 -0.000000
v 4.000001 1.999999 -0.000000
v 1.000001 4.000000 -0.000000
v 2.000001 4.000000 -0.000000
v 4.000000 -0.000001 -0.200000
v 4.000001 2.999999 -0.200000
v 2.000001 4.000000 -0.200000
v 0.000001 4.000000 -0.000000
v 3.984809 3.173647 -0.200000
v 3.984809 3.173647 -0.000000
v 3.939694 3.342019 -0.200000
v 3.939694 3.342019 -0.000000
v 3.866027 3.499999 -0.000000
v 3.866027 3.499999 -0.200000
v 3.766046 3.642787 -0.200000
v 3.766046 3.642787 -0.000000
v 3.642789 3.766043 -0.200000
v 3.642789 3.766043 -0.000000
v 3.500001 3.866024 -0.000000
v 3.500001 3.866024 -0.200000
v 3.342021 3.939692 -0.200000
v 3.342021 3.939692 -0.000000
v 3.173650 3.984807 -0.000000
v 3.173650 3.984807 -0.200000
v 3.000002 3.999999 -0.000000
v 3.000002 3.999999 -0.200000
vn 0.0000 0.0000 1.0000
vn 0.0000 0.0000 -1.0000
vn 0.0000 -1.0000 0.0000
vn 0.0436 -0.9990 0.0000
vn 1.0000 0.0000 0.0000
vn 0.9990 -0.0436 0.0000
vn 0.1736 -0.9848 0.0000
vn 0.3420 -0.9397 0.0000
vn 0.5000 -0.8660 0.0000
vn 0.6428 -0.7660 0.0000
vn 0.7660 -0.6428 0.0000
vn 0.8660 -0.5000 0.0000
vn 0.9397 -0.3420 0.0000
vn 0.9848 -0.1736 0.0000
vn -1.0000 0.0000 0.0000
vn -0.9990 -0.0436 0.0000
vn -0.0436 -0.9990 0.0000
vn -0.9848 -0.1736 0.0000
vn -0.9397 -0.3420 0.0000
vn -0.8660 -0.5000 0.0000
vn -0.7660 -0.6428 0.0000
vn -0.6428 -0.7660 0.0000
vn -0.5000 -0.8660 0.0000
vn -0.3420 -0.9397 0.0000
vn -0.1736 -0.9848 0.0000
vn 0.0000 1.0000 0.0000
vn -0.0436 0.9990 0.0000
vn -0.9990 0.0436 0.0000
vn -0.1736 0.9848 0.0000
vn -0.3420 0.9397 0.0000
vn -0.5000 0.8660 0.0000
vn -0.6428 0.7660 0.0000
vn -0.7660 0.6428 0.0000
vn -0.8660 0.5000 0.0000
vn -0.9397 0.3420 0.0000
vn -0.9848 0.1736 0.0000
vn 0.9990 0.0436 0.0000
vn 0.0436 0.9990 0.0000
vn 0.9848 0.1736 0.0000
vn 0.9397 0.3420 0.0000
vn 0.8660 0.5000 0.0000
vn 0.7660 0.6428 0.0000
vn 0.6428 0.7660 0.0000
vn 0.5000 0.8660 0.0000
vn 0.3420 0.9397 0.0000
vn 0.1736 0.9848 0.0000
s 1
f 135//1 186//1 161//1
f 107//2 190//2 185//2
f 108//1 189//1 174//1
f 163//1 192//1 135//1
f 219//3 1//3 12//3
f 15//2 37//2 33//2
f 32//1 2//1 11//1
f 50//1 224//1 223//1
f 29//2 221//2 31//2
f 16//4 3//3 228//4
f 22//2 13//2 24//2
f 26//1 9//1 17//1
f 64//1 14//1 23//1
f 230//2 18//2 25//2
f 225//5 229//5 19//5
f 23//1 9//1 21//1
f 24//2 5//2 62//2
f 31//2 227//2 27//2
f 32//1 224//1 28//1
f 4//3 12//3 3//3
f 25//2 10//2 22//2
f 26//1 8//1 20//1
f 37//2 222//2 29//2
f 159//1 26//1 20//1
f 193//2 22//2 166//2
f 185//2 62//2 107//2
f 183//1 21//1 167//1
f 310//5 19//5 158//5
f 317//2 25//2 193//2
f 108//1 23//1 183//1
f 196//1 21//1 26//1
f 185//2 22//2 24//2
f 18//2 29//2 10//2
f 17//1 52//1 8//1
f 14//1 28//1 9//1
f 13//2 27//2 5//2
f 10//2 31//2 13//2
f 17//1 28//1 50//1
f 6//1 32//1 14//1
f 18//2 51//2 37//2
f 226//5 248//6 229//5
f 33//2 37//2 35//2
f 228//4 232//7 16//4
f 50//1 223//1 34//1
f 50//1 36//1 39//1
f 231//7 234//8 232//7
f 50//1 34//1 36//1
f 38//2 37//2 40//2
f 35//2 37//2 38//2
f 233//8 235//9 234//8
f 237//10 240//11 238//10
f 236//9 238//10 235//9
f 50//1 39//1 41//1
f 50//1 43//1 45//1
f 50//1 41//1 43//1
f 40//2 37//2 42//2
f 44//2 37//2 46//2
f 42//2 37//2 44//2
f 239//11 241//12 240//11
f 50//1 47//1 49//1
f 242//12 244//13 241//12
f 50//1 45//1 47//1
f 50//1 49//1 52//1
f 46//2 37//2 48//2
f 243//13 245//14 244//13
f 48//2 37//2 51//2
f 246//14 247//6 245//14
f 249//15 53//15 65//15
f 68//2 91//2 87//2
f 84//1 63//1 86//1
f 104//1 254//1 253//1
f 85//2 252//2 251//2
f 69//16 55//15 258//16
f 78//2 61//2 66//2
f 80//1 60//1 70//1
f 117//1 67//1 77//1
f 260//2 71//2 79//2
f 255//3 259//3 72//3
f 77//1 60//1 75//1
f 73//2 66//2 57//2
f 81//2 251//2 257//2
f 86//1 254//1 82//1
f 56//15 65//15 55//15
f 79//2 61//2 76//2
f 74//1 70//1 59//1
f 91//2 252//2 83//2
f 30//1 74//1 2//1
f 5//2 79//2 76//2
f 62//2 73//2 107//2
f 64//1 75//1 6//1
f 220//3 72//3 1//3
f 27//2 260//2 79//2
f 108//1 77//1 64//1
f 6//1 80//1 30//1
f 62//2 76//2 78//2
f 71//2 83//2 61//2
f 70//1 106//1 59//1
f 67//1 82//1 60//1
f 57//2 85//2 81//2
f 61//2 85//2 66//2
f 70//1 82//1 104//1
f 109//1 86//1 67//1
f 58//2 91//2 71//2
f 256//3 278//17 259//3
f 87//2 91//2 89//2
f 258//16 262//18 69//16
f 104//1 253//1 88//1
f 104//1 90//1 93//1
f 261//18 264//19 262//18
f 104//1 88//1 90//1
f 92//2 91//2 94//2
f 89//2 91//2 92//2
f 263//19 265//20 264//19
f 267//21 270//22 268//21
f 266//20 268//21 265//20
f 104//1 93//1 95//1
f 104//1 97//1 99//1
f 104//1 95//1 97//1
f 94//2 91//2 96//2
f 98//2 91//2 100//2
f 96//2 91//2 98//2
f 269//22 271//23 270//22
f 104//1 101//1 103//1
f 272//23 274//24 271//23
f 104//1 99//1 101//1
f 104//1 103//1 106//1
f 100//2 91//2 102//2
f 273//24 275//25 274//24
f 102//2 91//2 105//2
f 276//25 277//17 275//25
f 116//26 308//26 118//26
f 121//2 142//2 138//2
f 135//1 285//1 137//1
f 155//1 282//1 281//1
f 134//2 279//2 136//2
f 122//27 110//26 286//27
f 130//2 115//2 119//2
f 132//1 114//1 123//1
f 174//1 120//1 129//1
f 288//2 124//2 131//2
f 283//15 287//15 125//15
f 129//1 114//1 127//1
f 172//2 119//2 162//2
f 136//2 160//2 179//2
f 133//1 285//1 282//1
f 111//26 118//26 110//26
f 131//2 115//2 128//2
f 126//1 123//1 113//1
f 142//2 280//2 134//2
f 84//1 126//1 54//1
f 81//2 128//2 57//2
f 73//2 172//2 107//2
f 117//1 127//1 109//1
f 250//15 125//15 53//15
f 257//2 131//2 81//2
f 108//1 129//1 117//1
f 109//1 132//1 84//1
f 73//2 128//2 130//2
f 124//2 134//2 115//2
f 123//1 157//1 113//1
f 114//1 137//1 133//1
f 162//2 136//2 179//2
f 115//2 136//2 119//2
f 123//1 133//1 155//1
f 163//1 137//1 120//1
f 112//2 142//2 124//2
f 284//15 306//28 287//15
f 138//2 142//2 140//2
f 286//27 290//29 122//27
f 155//1 281//1 139//1
f 155//1 141//1 144//1
f 289//29 292//30 290//29
f 155//1 139//1 141//1
f 143//2 142//2 145//2
f 140//2 142//2 143//2
f 291//30 293//31 292//30
f 295//32 298//33 296//32
f 294//31 296//32 293//31
f 155//1 144//1 146//1
f 155//1 148//1 150//1
f 155//1 146//1 148//1
f 145//2 142//2 147//2
f 149//2 142//2 151//2
f 147//2 142//2 149//2
f 297//33 299//34 298//33
f 155//1 152//1 154//1
f 300//34 302//35 299//34
f 155//1 150//1 152//1
f 155//1 154//1 157//1
f 151//2 142//2 153//2
f 301//35 303//36 302//35
f 153//2 142//2 156//2
f 304//36 305//28 303//36
f 309//5 158//5 175//5
f 178//2 203//2 199//2
f 196//1 173//1 198//1
f 194//1 313//1 216//1
f 195//2 311//2 197//2
f 180//37 164//5 318//37
f 190//2 171//2 176//2
f 192//1 170//1 181//1
f 183//1 177//1 189//1
f 184//2 182//2 191//2
f 315//26 319//26 307//26
f 189//1 170//1 187//1
f 185//2 176//2 166//2
f 193//2 311//2 317//2
f 194//1 173//1 314//1
f 165//5 175//5 164//5
f 191//2 171//2 188//2
f 186//1 181//1 169//1
f 203//2 312//2 195//2
f 179//2 188//2 162//2
f 174//1 187//1 163//1
f 320//26 307//26 308//26
f 160//2 191//2 179//2
f 172//2 188//2 190//2
f 182//2 195//2 171//2
f 181//1 218//1 169//1
f 177//1 194//1 170//1
f 166//2 197//2 193//2
f 171//2 197//2 176//2
f 181//1 194//1 216//1
f 167//1 198//1 177//1
f 168//2 203//2 182//2
f 316//26 338//38 319//26
f 199//2 203//2 201//2
f 318//37 322//39 180//37
f 216//1 313//1 200//1
f 216//1 202//1 205//1
f 321//39 324//40 322//39
f 216//1 200//1 202//1
f 204//2 203//2 206//2
f 201//2 203//2 204//2
f 323//40 325//41 324//40
f 327//42 330//43 328//42
f 326//41 328//42 325//41
f 216//1 205//1 207//1
f 216//1 209//1 211//1
f 216//1 207//1 209//1
f 206//2 203//2 208//2
f 210//2 203//2 212//2
f 208//2 203//2 210//2
f 329//43 331//44 330//43
f 216//1 213//1 215//1
f 332//44 334//45 331//44
f 216//1 211//1 213//1
f 216//1 215//1 218//1
f 212//2 203//2 214//2
f 333//45 335//46 334//45
f 214//2 203//2 217//2
f 336//46 337//38 335//46
f 135//1 192//1 186//1
f 107//2 172//2 190//2
f 108//1 183//1 189//1
f 163//1 187//1 192//1
f 219//3 220//3 1//3
f 32//1 30//1 2//1
f 50//1 28//1 224//1
f 29//2 222//2 221//2
f 16//4 4//3 3//3
f 22//2 10//2 13//2
f 26//1 21//1 9//1
f 64//1 6//1 14//1
f 230//2 7//2 18//2
f 225//5 226//5 229//5
f 23//1 14//1 9//1
f 24//2 13//2 5//2
f 31//2 221//2 227//2
f 32//1 11//1 224//1
f 4//3 219//3 12//3
f 25//2 18//2 10//2
f 26//1 17//1 8//1
f 37//2 15//2 222//2
f 159//1 196//1 26//1
f 193//2 25//2 22//2
f 185//2 24//2 62//2
f 183//1 23//1 21//1
f 310//5 225//5 19//5
f 317//2 230//2 25//2
f 108//1 64//1 23//1
f 196//1 167//1 21//1
f 185//2 166//2 22//2
f 18//2 37//2 29//2
f 17//1 50//1 52//1
f 14//1 32//1 28//1
f 13//2 31//2 27//2
f 10//2 29//2 31//2
f 17//1 9//1 28//1
f 6//1 30//1 32//1
f 18//2 7//2 51//2
f 226//5 247//6 248//6
f 228//4 231//7 232//7
f 231//7 233//8 234//8
f 233//8 236//9 235//9
f 237//10 239//11 240//11
f 236//9 237//10 238//10
f 239//11 242//12 241//12
f 242//12 243//13 244//13
f 243//13 246//14 245//14
f 246//14 248//6 247//6
f 249//15 250//15 53//15
f 84//1 54//1 63//1
f 104//1 82//1 254//1
f 85//2 83//2 252//2
f 69//16 56//15 55//15
f 78//2 76//2 61//2
f 80//1 75//1 60//1
f 117//1 109//1 67//1
f 260//2 58//2 71//2
f 255//3 256//3 259//3
f 77//1 67//1 60//1
f 73//2 78//2 66//2
f 81//2 85//2 251//2
f 86//1 63//1 254//1
f 56//15 249//15 65//15
f 79//2 71//2 61//2
f 74//1 80//1 70//1
f 91//2 68//2 252//2
f 30//1 80//1 74//1
f 5//2 27//2 79//2
f 62//2 78//2 73//2
f 64//1 77//1 75//1
f 220//3 255//3 72//3
f 27//2 227//2 260//2
f 108//1 117//1 77//1
f 6//1 75//1 80//1
f 62//2 5//2 76//2
f 71//2 91//2 83//2
f 70//1 104//1 106//1
f 67//1 86//1 82//1
f 57//2 66//2 85//2
f 61//2 83//2 85//2
f 70//1 60//1 82//1
f 109//1 84//1 86//1
f 58//2 105//2 91//2
f 256//3 277//17 278//17
f 258//16 261//18 262//18
f 261//18 263//19 264//19
f 263//19 266//20 265//20
f 267//21 269//22 270//22
f 266//20 267//21 268//21
f 269//22 272//23 271//23
f 272//23 273//24 274//24
f 273//24 276//25 275//25
f 276//25 278//17 277//17
f 116//26 320//26 308//26
f 135//1 161//1 285//1
f 155//1 133//1 282//1
f 134//2 280//2 279//2
f 122//27 111//26 110//26
f 130//2 128//2 115//2
f 132//1 127//1 114//1
f 174//1 163//1 120//1
f 288//2 112//2 124//2
f 283//15 284//15 287//15
f 129//1 120//1 114//1
f 172//2 130//2 119//2
f 136//2 279//2 160//2
f 133//1 137//1 285//1
f 111//26 116//26 118//26
f 131//2 124//2 115//2
f 126//1 132//1 123//1
f 142//2 121//2 280//2
f 84//1 132//1 126//1
f 81//2 131//2 128//2
f 73//2 130//2 172//2
f 117//1 129//1 127//1
f 250//15 283//15 125//15
f 257//2 288//2 131//2
f 108//1 174//1 129//1
f 109//1 127//1 132//1
f 73//2 57//2 128//2
f 124//2 142//2 134//2
f 123//1 155//1 157//1
f 114//1 120//1 137//1
f 162//2 119//2 136//2
f 115//2 134//2 136//2
f 123//1 114//1 133//1
f 163//1 135//1 137//1
f 112//2 156//2 142//2
f 284//15 305//28 306//28
f 286//27 289//29 290//29
f 289//29 291//30 292//30
f 291//30 294//31 293//31
f 295//32 297//33 298//33
f 294//31 295//32 296//32
f 297//33 300//34 299//34
f 300//34 301//35 302//35
f 301//35 304//36 303//36
f 304//36 306//28 305//28
f 309//5 310//5 158//5
f 196//1 159//1 173//1
f 194//1 314//1 313//1
f 195//2 312//2 311//2
f 180//37 165//5 164//5
f 190//2 188//2 171//2
f 192//1 187//1 170//1
f 183//1 167//1 177//1
f 184//2 168//2 182//2
f 315//26 316//26 319//26
f 189//1 177//1 170//1
f 185//2 190//2 176//2
f 193//2 197//2 311//2
f 194//1 198//1 173//1
f 165//5 309//5 175//5
f 191//2 182//2 171//2
f 186//1 192//1 181//1
f 203//2 178//2 312//2
f 179//2 191//2 188//2
f 174//1 189//1 187//1
f 320//26 315//26 307//26
f 160//2 184//2 191//2
f 172//2 162//2 188//2
f 182//2 203//2 195//2
f 181//1 216//1 218//1
f 177//1 198//1 194//1
f 166//2 176//2 197//2
f 171//2 195//2 197//2
f 181//1 170//1 194//1
f 167//1 196//1 198//1
f 168//2 217//2 203//2
f 316//26 337//38 338//38
f 318//37 321//39 322//39
f 321//39 323//40 324//40
f 323//40 326//41 325//41
f 327//42 329//43 330//43
f 326//41 327//42 328//42
f 329//43 332//44 331//44
f 332//44 333//45 334//45
f 333//45 336//46 335//46
f 336//46 338//38 337//38
